:SAMPLES-PER-SECOND 30
:FULLY-SPECIFIED
:DEGREES
541
root  -10.5317 38.7961 25.1083 -170.178 0.501358 178.355
RightUpLeg  -2.69118 -12.5387 -17.1136
RightLeg  27.4874 -26.6479 -14.3967
RightFoot  9.06079 -3.99725 22.2975
RightToes  -1.74624e-010 0 -3.6325e-017
Spine  16.2255 4.64538 3.52126
Spine1  8.90277 7.99928 -9.98501
HEad  -19.0398 -6.21127 6.23537
LeftShoulder1  0.670718 0.460671 -15.2018
LeftArm  17.3969 8.75491 -57.8946
LeftForeArm  127.633 -70.5859 -146.604
LeftHand  -2.24757 -2.41913 32.8574
RightShoulder  0.781771 1.07587 9.73974
RightArm  -41.6168 -11.8476 28.8219
RightForeArm  -11.4246 20.5523 5.27865
RightHand  -3.62256 6.89996 -33.5673
LeftUpLeg  -30.8607 -15.1245 7.5283
LeftLeg  20.4227 -12.0636 -4.60377
LeftFoot  -1.73842 0.66477 -7.78743
LeftToes  -5.82109e-011 1.10366e-010 -8.03124e-011
542
root  -10.4035 38.9364 25.3251 -169.528 1.78159 177.86
RightUpLeg  -5.32931 -9.14734 -17.3025
RightLeg  29.2511 -25.6911 -14.9005
RightFoot  10.4584 -4.20383 21.9558
RightToes  -1.74624e-010 0 -3.6325e-017
Spine  16.3978 4.17448 4.85588
Spine1  7.06931 8.66979 -14.4894
HEad  -12.5534 -4.13655 5.41154
LeftShoulder1  0.71864 0.152242 -14.5491
LeftArm  14.4367 18.9556 -56.0064
LeftForeArm  132.347 -68.0826 -151.184
LeftHand  -2.18461 -2.56535 31.3762
RightShoulder  0.399248 -0.126476 3.89709
RightArm  -38.128 2.74437 25.1313
RightForeArm  -5.57202 28.3387 6.38604
RightHand  -3.63361 7.37699 -32.4907
LeftUpLeg  -30.3595 -13.7644 6.75005
LeftLeg  18.0266 -9.24259 -2.85223
LeftFoot  -0.263323 0.71487 -7.34677
LeftToes  -5.82109e-011 1.10366e-010 -8.03124e-011
543
root  -10.1793 38.8215 25.545 -170.067 3.51898 177.039
RightUpLeg  -7.37998 -6.5606 -18.3084
RightLeg  32.4594 -23.5948 -15.5342
RightFoot  9.98139 -4.31259 23.0071
RightToes  -1.74624e-010 0 -3.6325e-017
Spine  17.3744 3.85369 5.79947
Spine1  5.81494 9.42642 -18.7804
HEad  -8.38257 -2.80049 5.66362
LeftShoulder1  0.781129 -0.246358 -13.8588
LeftArm  11.3912 25.4355 -54.2479
LeftForeArm  131.151 -66.2075 -153.481
LeftHand  -1.65631 -1.43727 27.8363
RightShoulder  0.179195 -0.931457 -1.63436
RightArm  -32.7196 14.0526 21.3651
RightForeArm  1.45959 41.3025 9.84791
RightHand  -3.35607 7.42065 -30.0155
LeftUpLeg  -29.9613 -10.4817 4.99198
LeftLeg  18.8884 -7.60022 -2.31851
LeftFoot  -0.329152 0.661919 -6.83954
LeftToes  -5.82109e-011 1.10366e-010 -8.03124e-011
544
root  -9.8613 38.4773 25.7119 -171.436 3.28209 175.827
RightUpLeg  -7.54419 -6.31519 -19.7969
RightLeg  35.9786 -21.1044 -15.8914
RightFoot  7.75111 -4.46449 26.4811
RightToes  -1.74624e-010 0 -3.6325e-017
Spine  18.6234 3.40414 6.8833
Spine1  5.83132 10.0793 -22.4066
HEad  -7.77673 -3.90318 7.81299
LeftShoulder1  0.678429 0.112432 -12.9451
LeftArm  10.5972 25.3903 -52.6471
LeftForeArm  128.305 -66.3803 -152.94
LeftHand  -1.13609 -0.00384919 24.4044
RightShoulder  0.0645661 -1.67674 -5.73974
RightArm  -31.5059 19.827 15.9587
RightForeArm  13.0987 57.1701 16.7964
RightHand  -2.68549 6.88615 -25.2664
LeftUpLeg  -30.1987 -8.33653 3.21479
LeftLeg  21.9387 -7.26804 -2.90053
LeftFoot  -1.25073 0.564268 -6.29923
LeftToes  -5.82109e-011 1.10366e-010 -8.03124e-011
545
root  -9.4805 37.9734 25.808 -173.349 0.699677 174.861
RightUpLeg  -5.71876 -7.92378 -21.1489
RightLeg  39.2793 -18.0539 -15.4281
RightFoot  4.52328 -4.31394 30.4971
RightToes  -1.74624e-010 0 -3.6325e-017
Spine  19.7837 2.82551 7.39684
Spine1  6.6812 10.0305 -23.434
HEad  -8.76154 -6.14236 10.429
LeftShoulder1  0.577399 0.51465 -12.2124
LeftArm  11.1788 21.6834 -51.8495
LeftForeArm  127.913 -67.983 -150.802
LeftHand  -0.996934 0.374158 23.0241
RightShoulder  0.00911582 -2.95231 -8.64982
RightArm  -34.3434 22.9087 12.4303
RightForeArm  27.537 69.9972 29.5478
RightHand  -2.01553 6.24934 -20.2359
LeftUpLeg  -30.866 -8.45491 1.98856
LeftLeg  26.4577 -7.92212 -3.92975
LeftFoot  -2.68144 0.451678 -5.74751
LeftToes  -5.82109e-011 1.10366e-010 -8.03124e-011
546
root  -9.05479 37.4486 25.8319 -175.817 -2.26012 174.78
RightUpLeg  -2.97003 -9.20084 -21.7284
RightLeg  42.2539 -14.5095 -13.9575
RightFoot  1.46551 -3.63215 31.6185
RightToes  -1.74624e-010 0 -3.6325e-017
Spine  20.5301 2.58396 6.63153
Spine1  7.77561 9.32884 -21.2634
HEad  -8.98339 -7.50906 12.1967
LeftShoulder1  0.675108 -0.0422187 -11.8961
LeftArm  10.9494 18.9408 -52.0837
LeftForeArm  129.253 -69.4625 -148.763
LeftHand  -1.16233 -0.252825 23.795
RightShoulder  0.010451 -4.50254 -10.6826
RightArm  -36.8001 26.9658 15.5552
RightForeArm  42.8735 76.3655 48.5161
RightHand  -1.63174 5.631 -17.3802
LeftUpLeg  -31.0666 -9.91843 2.06107
LeftLeg  31.3815 -8.51128 -5.21658
LeftFoot  -4.53882 0.363324 -5.67328
LeftToes  -5.82109e-011 1.10366e-010 -8.03124e-011
547
root  -8.5832 37.1177 25.8319 -178.225 -3.71111 175.201
RightUpLeg  -0.973458 -8.87548 -21.5421
RightLeg  44.5355 -11.2315 -11.8902
RightFoot  -0.812133 -2.7656 29.3125
RightToes  -1.74624e-010 0 -3.6325e-017
Spine  20.1239 2.97103 4.81056
Spine1  9.33106 8.7566 -17.8913
HEad  -8.34384 -7.76787 13.1005
LeftShoulder1  0.896952 -1.19655 -11.9434
LeftArm  9.70689 18.3324 -52.7234
LeftForeArm  129.93 -70.3624 -147.348
LeftHand  -1.41631 -0.859641 26.1252
RightShoulder  0.0187773 -5.02591 -10.8594
RightArm  -35.2273 31.2214 24.3573
RightForeArm  57.5134 78.6466 69.0766
RightHand  -1.40384 4.71569 -16.315
LeftUpLeg  -30.1483 -10.537 2.84502
LeftLeg  34.3494 -9.09095 -6.26105
LeftFoot  -5.92827 0.337081 -6.37976
LeftToes  -5.82109e-011 1.10366e-010 -8.03124e-011
548
root  -8.06167 37.1464 25.9021 -179.482 -3.73143 175.372
RightUpLeg  -0.621313 -7.91131 -21.1055
RightLeg  45.2655 -8.85352 -9.75953
RightFoot  -2.68307 -2.02483 26.0785
RightToes  -1.74624e-010 0 -3.6325e-017
Spine  18.3639 3.58054 3.07486
Spine1  11.3198 8.68637 -15.6139
HEad  -8.02145 -7.99284 13.3188
LeftShoulder1  1.0285 -1.81009 -12.2609
LeftArm  8.87194 18.5067 -53.5016
LeftForeArm  129.801 -71.1741 -145.857
LeftHand  -1.65834 -1.17548 29.0125
RightShoulder  0.00212718 -3.93937 -8.31625
RightArm  -28.7232 32.631 33.7895
RightForeArm  77.6554 79.1963 92.7769
RightHand  -1.2635 3.94445 -15.8886
LeftUpLeg  -28.5549 -10.2461 3.64548
LeftLeg  33.5459 -9.23774 -6.18599
LeftFoot  -5.58119 0.408904 -7.44631
LeftToes  -5.82109e-011 1.10366e-010 -8.03124e-011
549
root  -7.49854 37.5271 26.1113 -179.383 -3.61253 175.454
RightUpLeg  -1.34761 -7.83222 -20.3934
RightLeg  43.5859 -7.78159 -8.15659
RightFoot  -4.34027 -1.51643 24.0035
RightToes  -1.74624e-010 0 -3.6325e-017
Spine  16.4424 3.78323 2.51
Spine1  12.625 8.66663 -14.6379
HEad  -8.45603 -8.74661 12.693
LeftShoulder1  0.970474 -1.46558 -12.4451
LeftArm  9.29676 19.2101 -54.616
LeftForeArm  130.312 -71.8702 -144.574
LeftHand  -1.86087 -1.5194 30.8552
RightShoulder  0.067966 -2.22589 -3.75014
RightArm  -18.8099 30.2781 41.3332
RightForeArm  99.1338 78.1541 114.661
RightHand  -1.23242 3.86461 -15.6362
LeftUpLeg  -27.0731 -10.3469 4.59844
LeftLeg  29.4944 -8.6475 -4.92355
LeftFoot  -2.90132 0.646955 -8.51528
LeftToes  -5.82109e-011 1.10366e-010 -8.03124e-011
550
root  -6.89737 38.1043 26.4774 -178.591 -4.10468 176.038
RightUpLeg  -2.23155 -8.64783 -18.8083
RightLeg  39.3348 -8.33522 -7.5095
RightFoot  -5.03358 -1.33633 23.3322
RightToes  -1.74624e-010 0 -3.6325e-017
Spine  15.3971 3.48227 3.12387
Spine1  12.5975 8.20232 -13.7585
HEad  -9.49297 -9.63374 11.4593
LeftShoulder1  0.828617 -0.753941 -12.3659
LeftArm  10.5925 21.0357 -55.7465
LeftForeArm  132.131 -71.9415 -144.7
LeftHand  -1.99187 -2.04829 30.6844
RightShoulder  0.24628 -0.941396 1.41347
RightArm  -8.37112 24.9552 47.4756
RightForeArm  111.19 76.6016 126.841
RightHand  -1.21785 4.04564 -15.169
LeftUpLeg  -26.1164 -11.1776 6.2766
LeftLeg  24.0502 -7.72234 -3.44399
LeftFoot  1.96962 1.16771 -10.043
LeftToes  -5.82109e-011 1.10366e-010 -8.03124e-011
551
root  -6.24542 38.6397 26.9642 -177.598 -4.9673 176.935
RightUpLeg  -3.04358 -9.02767 -16.5766
RightLeg  33.6991 -10.1877 -7.46627
RightFoot  -4.57422 -1.44825 23.6275
RightToes  -1.74624e-010 0 -3.6325e-017
Spine  14.7213 3.08422 3.92801
Spine1  12.1677 7.3851 -12.2514
HEad  -11.1215 -10.204 10.1609
LeftShoulder1  0.747909 -0.352388 -12.292
LeftArm  12.1141 23.5129 -56.2354
LeftForeArm  134.626 -71.396 -146.139
LeftHand  -2.03532 -2.60907 29.2233
RightShoulder  0.493124 -0.0151477 6.48045
RightArm  -0.262366 18.0191 52.0104
RightForeArm  112.991 75.7113 130.868
RightHand  -1.14193 3.81878 -14.5856
LeftUpLeg  -25.7458 -10.8194 8.11123
LeftLeg  18.5227 -7.52743 -2.31683
LeftFoot  8.24686 2.0825 -12.287
LeftToes  -5.82109e-011 1.10366e-010 -8.03124e-011
552
root  -5.5436 38.9005 27.4885 -176.568 -5.67021 177.388
RightUpLeg  -3.95939 -8.35676 -14.8297
RightLeg  29.0733 -11.8751 -7.29867
RightFoot  -4.78057 -1.46252 24.6432
RightToes  -1.74624e-010 0 -3.6325e-017
Spine  13.5631 2.95616 3.93028
Spine1  12.4135 6.54413 -10.1362
HEad  -13.0486 -10.4084 8.81684
LeftShoulder1  0.760928 -0.407302 -12.3577
LeftArm  13.5657 25.5132 -56.0044
LeftForeArm  137.09 -70.7868 -147.604
LeftHand  -2.03379 -3.01206 27.8703
RightShoulder  0.819472 0.963656 11.2159
RightArm  4.73684 10.9251 54.5425
RightForeArm  109.161 75.42 131.14
RightHand  -1.05598 3.22879 -14.4036
LeftUpLeg  -25.6751 -7.16003 8.41251
LeftLeg  13.716 -8.8325 -1.2673
LeftFoot  13.889 3.1245 -14.3113
LeftToes  -5.82109e-011 1.10366e-010 -8.03124e-011
553
root  -4.83326 38.7894 28.0171 -176.049 -5.7765 177.297
RightUpLeg  -4.91299 -7.72669 -13.9423
RightLeg  27.4428 -11.8066 -6.8034
RightFoot  -7.80362 -0.849838 25.3413
RightToes  -1.74624e-010 0 -3.6325e-017
Spine  12.3937 3.06636 3.2648
Spine1  13.1353 5.79471 -7.61954
HEad  -14.6091 -10.1668 7.09401
LeftShoulder1  0.780565 -0.500763 -12.3959
LeftArm  15.0024 26.5078 -55.4448
LeftForeArm  139.205 -70.5082 -148.38
LeftHand  -2.08036 -3.35184 27.4225
RightShoulder  1.12778 1.74989 14.7177
RightArm  7.50931 4.50385 56.4351
RightForeArm  105.05 75.1741 131.225
RightHand  -0.995622 2.71092 -14.4299
LeftUpLeg  -25.8985 -4.01432 8.38836
LeftLeg  11.7662 -7.71379 -0.492654
LeftFoot  15.5198 3.52799 -15.1213
LeftToes  -5.82109e-011 1.10366e-010 -8.03124e-011
554
root  -4.15886 38.393 28.6269 -176.745 -4.94432 177.174
RightUpLeg  -5.78098 -7.92943 -13.2451
RightLeg  28.8548 -10.41 -6.38278
RightFoot  -13.1177 0.278541 24.115
RightToes  -1.74624e-010 0 -3.6325e-017
Spine  12.415 3.07425 2.79216
Spine1  13.8298 5.24998 -5.50345
HEad  -15.7663 -9.14602 5.09052
LeftShoulder1  0.715929 -0.146518 -12.5352
LeftArm  16.3851 26.3913 -54.6665
LeftForeArm  140.361 -70.7277 -148.175
LeftHand  -2.19279 -3.68859 27.8173
RightShoulder  1.2437 1.89706 16.408
RightArm  9.01607 -0.755604 59.1939
RightForeArm  104.219 74.6097 133.06
RightHand  -0.891625 2.22924 -13.7264
LeftUpLeg  -26.2531 -4.96961 9.97143
LeftLeg  15.0429 -1.72898 0.163399
LeftFoot  11.5443 2.9334 -14.7531
LeftToes  -5.82109e-011 1.10366e-010 -8.03124e-011
